<?xml version="1.0" encoding="UTF-8" standalone="no"?> <svg width="64" height="64" viewBox="0 0 64 64" fill="none" xmlns="http://www.w3.org/2000/svg">
<path d="M61.4901 20.5497C61.1356 20.1566 60.6397 19.9201 60.1111 19.892C59.5825 19.8639 59.0643 20.0465 58.6701 20.3997L29.0001 46.9997L27.3001 44.7897C27.1393 44.5816 26.939 44.4072 26.7107 44.2764C26.4824 44.1457 26.2306 44.0612 25.9697 44.0278C25.7088 43.9943 25.4438 44.0126 25.1899 44.0816C24.9361 44.1506 24.6983 44.2689 24.4901 44.4297C24.282 44.5906 24.1076 44.7909 23.9768 45.0192C23.8461 45.2475 23.7616 45.4992 23.7282 45.7602C23.6947 46.0211 23.713 46.2861 23.782 46.5399C23.851 46.7938 23.9693 47.0316 24.1301 47.2397L27.1301 51.1497C27.298 51.3674 27.509 51.5481 27.7499 51.6806C27.9908 51.8131 28.2564 51.8945 28.5301 51.9197C28.8043 51.9455 29.0808 51.9144 29.3423 51.8284C29.6039 51.7423 29.8448 51.6032 30.0501 51.4197L61.3001 23.4197C61.505 23.2464 61.6729 23.0336 61.7938 22.7939C61.9147 22.5543 61.9862 22.2928 62.0039 22.025C62.0216 21.7572 61.9853 21.4886 61.897 21.2351C61.8088 20.9817 61.6704 20.7486 61.4901 20.5497Z" fill="black"/>
<path d="M52.1201 12.7599C51.767 12.3653 51.2718 12.127 50.7432 12.097C50.2145 12.067 49.6956 12.2478 49.3001 12.5999L18.3001 40.4099L5.5801 23.9399C5.24471 23.5569 4.77589 23.3162 4.2692 23.2669C3.7625 23.2175 3.25607 23.3633 2.85312 23.6744C2.45017 23.9856 2.18104 24.4387 2.10058 24.9414C2.02012 25.4441 2.13439 25.9585 2.4201 26.3799L16.4201 44.5599C16.5879 44.7781 16.799 44.9592 17.0401 45.0921C17.2812 45.2249 17.5471 45.3066 17.8212 45.3319C18.0953 45.3573 18.3717 45.3258 18.633 45.2394C18.8944 45.153 19.1351 45.0136 19.3401 44.8299L52.0001 15.5799C52.389 15.2212 52.6199 14.7232 52.6424 14.1947C52.6649 13.6661 52.4771 13.1502 52.1201 12.7599Z" fill="black"/>
</svg>
